<?xml version="1.0" standalone="no"?>
<!DOCTYPE svg PUBLIC "-//W3C//DTD SVG 20010904//EN"
 "http://www.w3.org/TR/2001/REC-SVG-20010904/DTD/svg10.dtd">
<svg version="1.0" xmlns="http://www.w3.org/2000/svg"
 width="1746.000000pt" height="1746.000000pt" viewBox="0 0 1746.000000 1746.000000"
 preserveAspectRatio="xMidYMid meet">
<metadata>
Created by potrace 1.14, written by Peter Selinger 2001-2017
</metadata>
<g transform="translate(0.000000,1746.000000) scale(0.100000,-0.100000)"
fill="#000000" stroke="none">
<path d="M12890 17442 c-22 -11 -50 -40 -75 -79 -22 -34 -42 -63 -46 -63 -3 0
-15 20 -27 45 -26 53 -50 58 -82 18 -17 -22 -20 -36 -15 -68 4 -22 7 -69 8
-105 2 -61 0 -65 -21 -68 -12 -2 -30 -14 -38 -28 -22 -33 -11 -72 81 -298 111
-274 136 -396 99 -497 -12 -34 -14 -63 -9 -129 10 -118 10 -116 -29 -162 -20
-23 -41 -58 -46 -77 -5 -20 -10 -126 -10 -237 0 -123 -4 -214 -11 -235 -23
-67 -106 -131 -187 -144 -24 -4 -55 -17 -69 -29 l-26 -23 9 -181 9 -181 43
-44 c23 -23 42 -50 42 -59 0 -26 -73 -127 -152 -211 l-73 -79 -65 24 c-51 18
-65 28 -70 48 -8 35 -47 37 -109 6 -28 -14 -55 -26 -62 -26 -6 0 -35 21 -63
48 -78 71 -197 159 -236 175 -58 25 -99 5 -134 -65 -30 -60 -43 -129 -32 -172
3 -13 25 -38 48 -55 46 -34 118 -134 118 -164 0 -34 -41 -77 -101 -107 -65
-33 -76 -53 -65 -121 9 -54 -12 -60 -66 -20 -23 17 -52 31 -64 31 -26 0 -62
-39 -88 -97 -21 -47 -35 -55 -145 -79 -78 -17 -111 -40 -111 -77 0 -13 11 -61
25 -108 37 -126 35 -147 -21 -193 l-46 -39 4 -62 c7 -82 25 -119 61 -123 22
-3 32 -12 43 -37 17 -41 51 -75 76 -75 23 0 100 -70 130 -118 20 -33 21 -38 8
-96 -7 -34 -12 -82 -11 -107 2 -43 -2 -52 -54 -112 -58 -69 -65 -90 -40 -117
14 -16 14 -21 -5 -53 -29 -48 -22 -77 54 -237 12 -25 42 -31 78 -16 11 5 18 1
23 -13 4 -14 15 -21 31 -21 19 0 30 12 54 60 33 65 54 83 115 99 76 20 80 27
77 135 l-3 96 45 0 c68 0 92 15 118 76 22 52 38 69 38 41 0 -24 35 -47 71 -47
55 0 160 -41 172 -67 16 -36 40 -28 122 42 42 36 83 65 90 65 27 0 37 26 22
62 -21 48 -57 77 -116 93 -29 7 -59 19 -68 26 -17 15 -110 134 -161 206 -68
97 -87 103 -177 52 -66 -37 -69 -36 -181 72 -45 44 -86 79 -92 79 -20 0 -25
103 -8 145 23 55 120 169 174 205 54 36 58 36 65 10 6 -24 49 -27 87 -5 39 22
45 19 69 -39 12 -29 49 -84 81 -122 33 -38 60 -76 60 -84 0 -33 21 -88 36 -94
24 -9 48 9 101 77 118 150 406 294 599 300 52 2 65 -2 97 -26 20 -15 50 -48
67 -72 38 -55 74 -75 135 -75 26 0 56 -5 68 -11 12 -6 68 -57 124 -112 99 -96
104 -99 139 -94 35 6 40 2 119 -73 46 -44 96 -84 110 -90 15 -6 54 -8 89 -4
105 11 171 -33 286 -186 77 -103 90 -114 120 -105 18 6 20 15 20 98 0 77 4
101 25 145 23 49 25 66 25 186 0 128 1 133 29 178 35 55 254 290 422 453 119
115 130 123 274 197 90 47 157 76 167 72 10 -3 41 -23 70 -45 29 -22 69 -44
88 -49 49 -13 249 -32 260 -25 21 13 9 51 -26 80 l-36 31 25 30 c14 16 41 39
61 49 36 19 36 19 58 -2 l21 -22 -36 -17 c-39 -18 -41 -22 -31 -48 5 -13 22
-16 85 -16 99 0 124 11 145 66 11 29 23 44 34 44 33 0 44 26 26 61 -9 18 -14
34 -12 37 8 7 219 41 259 42 20 0 37 -4 37 -8 0 -5 6 -16 13 -26 21 -28 55 -5
62 42 9 50 24 88 47 117 16 20 28 25 67 25 34 0 53 6 69 20 39 37 55 68 48 96
-6 23 -10 25 -34 19 -15 -4 -49 -7 -77 -6 -66 2 -150 -24 -170 -51 -8 -13 -15
-35 -15 -50 0 -16 -7 -31 -18 -37 -15 -8 -22 -4 -36 20 -20 33 -51 53 -72 45
-10 -4 -14 3 -14 29 0 19 -9 57 -20 85 -11 27 -29 73 -40 100 l-20 50 43 -2
c35 -3 42 0 42 16 0 32 -69 79 -121 82 -56 3 -66 11 -94 76 -34 78 -37 154 -8
199 115 182 148 245 148 279 0 23 11 53 30 83 74 117 90 185 61 255 -16 38
-39 41 -69 9 -31 -33 -113 -150 -162 -229 -30 -51 -53 -74 -88 -94 -63 -36
-92 -64 -92 -86 0 -11 -18 -30 -47 -47 -27 -16 -60 -39 -75 -50 -31 -25 -56
-26 -164 -7 -101 18 -182 39 -219 57 -25 12 -31 23 -42 79 -7 35 -20 71 -28
79 -8 8 -45 18 -82 22 -70 8 -239 62 -443 142 -212 82 -284 127 -321 198 -13
26 -45 57 -98 94 -91 64 -473 455 -514 526 -13 24 -28 62 -32 84 -11 63 -36
101 -190 279 -98 114 -148 181 -155 206 -7 25 -33 59 -87 112 -117 113 -148
128 -203 100z"/>
<path d="M12020 17392 c-49 -24 -49 -49 -1 -145 60 -120 110 -182 146 -182 35
0 50 24 65 105 18 93 13 165 -12 195 -38 44 -138 58 -198 27z"/>
<path d="M12290 17168 c-32 -17 -36 -51 -16 -142 22 -93 53 -150 87 -154 21
-2 35 7 67 43 72 82 98 158 68 197 -33 44 -163 78 -206 56z"/>
<path d="M10703 13390 c-68 -39 -87 -68 -80 -121 6 -47 45 -127 68 -142 30
-19 65 0 87 46 34 72 56 149 56 197 l1 45 -40 3 c-30 2 -54 -6 -92 -28z"/>
<path d="M11999 12555 c-26 -14 -53 -66 -79 -150 -7 -22 -24 -67 -37 -100 -22
-52 -25 -70 -20 -135 7 -90 22 -146 42 -154 8 -3 28 6 44 20 41 35 161 74 183
61 13 -9 26 -1 68 36 54 49 79 57 99 33 9 -10 8 -21 -1 -42 -6 -16 -14 -67
-18 -114 -5 -70 -12 -97 -41 -154 -19 -39 -40 -71 -46 -73 -19 -7 -72 47 -75
75 -2 21 -14 33 -58 55 -81 41 -94 36 -98 -38 -3 -52 -8 -67 -44 -113 -27 -37
-43 -51 -50 -44 -20 20 -59 207 -62 297 -5 151 -45 194 -139 146 -41 -21 -39
-22 -81 52 -21 36 -33 47 -52 47 -28 0 -37 -18 -48 -91 -6 -41 -9 -46 -30 -42
-13 3 -28 -2 -36 -12 -11 -13 -10 -20 10 -47 21 -29 22 -37 17 -132 -7 -118
-22 -196 -48 -248 -22 -43 -39 -46 -104 -23 -51 18 -71 6 -94 -55 -12 -33 -31
-55 -74 -88 -78 -59 -76 -85 7 -137 14 -9 14 -20 6 -78 -9 -60 -8 -74 9 -110
10 -23 30 -53 44 -66 32 -29 44 -80 26 -112 -6 -13 -38 -56 -69 -96 -35 -43
-65 -93 -75 -125 -10 -29 -19 -55 -21 -57 -1 -1 -26 5 -54 14 -65 22 -106 14
-94 -18 4 -12 7 -50 6 -83 -3 -78 10 -114 40 -114 13 0 50 12 83 26 95 40 91
41 140 -8 l45 -45 0 -217 c0 -226 -2 -239 -46 -286 -12 -14 -48 -79 -78 -145
-55 -119 -56 -120 -56 -217 0 -82 -5 -110 -28 -175 -41 -110 -54 -133 -98
-162 -75 -51 -116 -146 -214 -501 -28 -102 -62 -204 -76 -227 -39 -67 -132
-128 -252 -164 -105 -32 -215 -105 -254 -167 -18 -30 -20 -43 -14 -113 8 -99
1 -117 -93 -234 -71 -89 -140 -155 -270 -259 -113 -91 -140 -107 -163 -95 -25
13 -65 -4 -74 -33 -8 -26 -46 -43 -173 -78 -61 -16 -150 -47 -198 -69 -48 -21
-115 -47 -148 -56 -111 -32 -135 -57 -135 -145 0 -21 -3 -52 -6 -69 -6 -28
-10 -31 -44 -31 -80 0 -243 74 -257 117 -2 6 5 14 17 18 40 13 53 104 25 172
-8 19 -15 53 -15 75 0 48 -19 57 -68 32 -21 -10 -40 -20 -44 -22 -11 -5 -10
26 2 49 9 16 14 17 30 7 32 -20 71 1 109 60 32 50 35 52 80 53 104 1 146 40
102 95 -33 42 -27 61 20 69 55 9 79 35 79 85 0 49 -31 73 -95 73 -47 0 -168
-52 -268 -116 -46 -30 -56 -33 -61 -20 -8 21 -53 12 -133 -28 -71 -34 -67 -22
-82 -196 -11 -125 -7 -157 23 -182 24 -20 20 -121 -9 -236 -28 -112 -49 -156
-110 -234 -24 -31 -53 -78 -65 -106 -28 -65 -39 -77 -142 -146 -88 -60 -118
-90 -118 -121 0 -13 -10 -18 -47 -20 -46 -3 -48 -4 -50 -34 0 -17 -8 -44 -16
-60 -8 -16 -18 -47 -21 -69 -6 -29 -18 -50 -47 -75 -34 -30 -41 -42 -46 -87
-4 -40 -10 -54 -25 -59 -14 -4 -18 -13 -16 -32 2 -20 25 -44 87 -94 47 -37 88
-74 93 -82 8 -14 -9 -66 -21 -66 -3 0 -13 21 -21 48 -13 42 -18 47 -45 47 -35
0 -55 -31 -55 -87 0 -21 -2 -38 -4 -38 -2 0 -20 7 -39 15 -20 8 -43 12 -51 9
-18 -7 -22 -49 -6 -59 20 -12 9 -23 -42 -45 -29 -12 -86 -38 -126 -57 -50 -25
-80 -33 -97 -29 -23 6 -25 11 -25 57 0 60 -13 89 -41 89 -14 0 -29 -19 -57
-77 -41 -87 -63 -99 -121 -68 -36 18 -37 23 -11 139 31 138 24 186 -26 186
-39 0 -160 -66 -188 -103 -14 -19 -41 -42 -60 -52 -30 -16 -40 -17 -91 -7 -81
17 -240 15 -310 -3 -33 -8 -111 -40 -173 -70 l-114 -55 -100 0 c-55 0 -129 -5
-165 -12 -49 -9 -84 -9 -156 1 -92 13 -95 13 -168 -14 -103 -37 -112 -39 -155
-25 l-37 13 26 14 c28 14 36 46 15 59 -16 10 -157 6 -238 -7 -81 -12 -182 -45
-212 -68 -13 -10 -45 -23 -73 -30 -85 -20 -105 -31 -105 -57 0 -13 5 -24 10
-24 16 0 29 -43 19 -62 -5 -9 -50 -45 -100 -79 -50 -34 -95 -73 -99 -85 -5
-12 -46 -52 -92 -89 -46 -36 -167 -149 -270 -250 -140 -138 -191 -182 -205
-179 -19 5 -203 -82 -203 -96 0 -4 -27 -28 -60 -53 -33 -26 -60 -54 -60 -64 0
-26 -47 -98 -76 -118 -40 -26 -171 -18 -213 13 -17 12 -34 22 -39 22 -5 0 -36
-16 -68 -35 -32 -19 -68 -35 -81 -35 -50 0 -53 -86 -7 -169 29 -53 30 -61 3
-61 -55 0 -75 -42 -42 -89 9 -13 26 -51 37 -84 28 -81 46 -91 89 -49 30 29 39
33 68 27 24 -5 42 -18 60 -44 20 -28 38 -41 68 -48 62 -16 79 -8 107 56 22 48
27 54 37 40 38 -51 102 -51 187 0 l65 39 7 -30 c8 -41 24 -49 79 -42 46 6 49
5 114 -51 38 -32 86 -66 109 -76 67 -30 116 -23 116 16 0 31 44 82 86 100 40
17 43 38 14 92 -26 49 -26 89 2 111 65 52 69 59 62 111 -6 47 -4 52 24 81 36
35 50 37 102 10 30 -15 37 -24 33 -40 -9 -32 16 -78 60 -110 59 -44 80 -40
151 28 34 32 71 64 84 71 22 12 23 11 17 -21 -4 -22 -1 -40 9 -53 14 -19 17
-19 43 -5 19 11 30 26 33 48 3 18 8 33 13 32 4 0 16 0 27 0 12 0 43 -21 70
-46 68 -63 93 -54 70 26 -8 29 -7 37 6 47 11 8 15 23 12 50 -3 38 -3 38 38 41
l40 3 -4 -35 c-3 -28 1 -37 22 -51 17 -11 35 -15 51 -11 35 9 67 62 62 103 -1
18 -1 33 3 33 3 0 18 -19 34 -41 32 -46 69 -51 74 -11 3 17 16 29 46 42 24 10
53 30 64 45 l22 27 9 -24 c15 -41 35 -51 90 -43 33 4 63 2 86 -6 33 -12 38
-12 50 4 9 13 10 28 5 50 -5 18 -10 52 -12 77 -3 39 0 45 18 48 17 2 23 -4 28
-29 6 -31 6 -32 53 -25 72 10 116 36 132 82 8 21 15 40 16 42 1 1 16 -5 34
-14 47 -24 73 -8 101 60 13 32 27 53 33 49 5 -3 65 -9 131 -14 129 -8 193 -27
231 -69 33 -37 91 -60 240 -97 13 -3 39 8 71 30 66 46 129 77 153 77 11 0 28
-12 38 -26 29 -45 22 -86 -30 -161 -25 -37 -50 -80 -56 -94 -7 -20 -25 -32
-82 -53 -90 -33 -129 -60 -129 -90 0 -13 18 -48 41 -79 22 -32 35 -57 29 -57
-15 0 -50 -61 -50 -87 0 -12 11 -30 24 -40 l23 -18 -39 -44 c-61 -70 -65 -129
-8 -117 27 5 33 1 64 -48 23 -37 51 -63 83 -82 79 -45 83 -50 83 -115 0 -50 4
-63 29 -92 16 -18 52 -45 80 -61 42 -23 58 -26 94 -21 37 6 54 2 105 -24 86
-43 121 -41 176 10 78 71 126 141 126 183 0 52 29 187 45 212 8 12 29 24 48
28 44 8 158 85 177 119 13 24 13 28 -7 55 l-21 28 29 11 c34 13 36 31 9 65
-18 24 -18 26 -2 41 29 27 112 57 155 57 95 0 174 46 165 95 l-5 24 28 -20
c22 -15 29 -28 29 -53 0 -49 21 -62 73 -47 64 19 87 37 87 69 0 16 -7 37 -15
48 -20 26 -20 27 20 48 27 15 35 26 35 46 0 15 -7 33 -15 40 -8 7 -15 22 -15
34 0 34 -20 46 -76 46 -44 0 -56 4 -68 23 -9 12 -53 40 -99 62 -80 40 -82 42
-85 79 -5 57 5 83 38 103 39 23 48 54 37 126 -5 32 -6 64 -4 72 3 7 30 21 59
30 29 10 66 27 81 37 l28 20 -5 -24 c-38 -167 -44 -262 -20 -297 35 -49 165
-81 193 -47 17 20 5 38 -44 68 -59 35 -69 57 -43 88 11 14 21 20 24 15 17 -41
74 -111 95 -119 38 -13 77 0 97 33 l17 29 50 -19 c27 -10 55 -25 63 -32 11
-12 8 -18 -25 -38 -30 -19 -52 -23 -109 -24 -46 0 -77 -5 -88 -14 -24 -20 -56
-85 -56 -114 0 -60 58 -59 204 2 114 49 206 77 277 86 50 6 64 3 129 -25 66
-29 79 -31 124 -24 97 16 175 8 264 -24 100 -37 116 -34 107 19 -10 58 10 106
56 135 37 23 39 26 39 78 l0 54 43 17 c23 9 53 26 65 38 27 24 54 71 50 86 -2
5 18 34 44 64 44 51 51 55 112 67 79 15 108 9 131 -26 17 -26 17 -27 -1 -19
-11 4 -33 10 -50 12 -48 7 -56 -10 -43 -108 13 -101 6 -174 -22 -240 -20 -44
-20 -54 -9 -95 20 -69 53 -104 100 -104 44 0 116 24 141 46 10 9 21 30 25 48
11 56 66 145 120 198 61 59 66 83 28 119 -28 26 -74 93 -74 108 0 5 14 14 30
20 36 12 54 51 46 102 -7 42 9 68 60 99 26 17 44 21 72 17 26 -4 51 0 81 13
50 23 84 25 99 8 5 -7 22 -53 38 -103 15 -49 32 -93 37 -97 16 -10 37 3 37 23
0 10 12 26 28 36 55 34 72 55 72 90 0 26 -5 36 -24 43 -25 9 -66 55 -66 74 0
7 14 25 30 41 54 52 83 112 76 156 -9 58 4 76 64 81 28 3 59 13 70 23 12 11
27 15 42 11 35 -9 88 -44 88 -58 0 -7 -34 -45 -75 -85 -41 -39 -75 -78 -75
-87 0 -9 -8 -19 -17 -23 -60 -21 -109 -86 -99 -127 3 -13 18 -28 32 -35 l27
-12 -29 -30 c-25 -26 -29 -38 -29 -89 0 -47 4 -63 23 -83 l24 -25 -39 -12
c-52 -17 -63 -28 -63 -62 0 -22 11 -41 40 -70 39 -40 41 -40 101 -36 68 5 88
21 108 87 6 20 29 57 51 83 37 43 45 47 98 53 70 7 107 23 177 75 69 51 77 83
45 173 -12 34 -22 72 -23 83 -3 31 269 328 292 318 9 -3 50 -9 91 -11 95 -6
120 8 101 54 -7 17 -42 59 -77 94 -36 35 -76 75 -89 88 -32 33 -115 283 -115
346 0 25 8 75 17 110 15 55 15 71 4 114 -12 49 -12 52 24 133 21 46 64 151 96
233 33 83 64 160 69 173 8 19 17 22 62 22 78 0 82 5 72 86 -11 91 -8 118 25
216 27 79 29 94 35 330 7 279 6 285 -74 418 l-41 68 12 61 c11 56 9 93 -7 179
-8 42 10 63 118 134 74 48 79 54 75 81 -4 28 0 31 76 68 73 35 82 37 110 25
26 -10 33 -20 39 -54 14 -82 57 -123 111 -106 43 13 47 23 26 64 -13 24 -22
64 -24 105 -1 37 -8 72 -14 78 -8 8 -3 20 20 43 35 36 34 64 -2 64 l-22 0 21
23 c27 29 28 58 2 82 -26 23 -25 29 5 43 34 16 35 59 1 72 l-25 9 42 42 c33
33 50 42 77 43 34 1 35 2 34 41 0 22 -3 47 -7 55 -5 10 0 18 15 25 13 6 27 24
32 41 8 27 13 31 45 30 32 -1 37 3 45 29 6 21 21 37 47 49 56 28 73 49 59 75
-6 12 -15 21 -21 21 -12 0 -2 38 16 60 25 29 27 58 7 78 -18 18 -18 21 -5 35
10 10 15 33 15 63 -1 41 3 53 29 80 17 17 29 38 27 45 -1 8 7 24 19 36 20 20
22 29 17 90 -4 46 -12 73 -23 83 -20 17 -41 169 -41 293 0 96 -21 140 -70 147
-32 5 -35 8 -38 44 -2 21 4 53 12 71 20 42 20 74 1 81 -11 5 -12 11 -5 24 14
26 5 43 -42 80 -32 26 -53 59 -99 157 -86 181 -111 209 -153 168 -8 -8 -17
-15 -19 -15 -11 0 -46 90 -60 155 -40 178 -49 265 -38 342 6 41 11 102 11 136
0 34 12 146 27 249 22 153 24 190 14 202 -15 18 -51 5 -51 -18 0 -12 -92 -106
-104 -106 -24 0 -55 29 -74 68 -22 47 -62 83 -152 135 -58 33 -107 41 -141 22z
m-6807 -6900 c-6 -33 -16 -38 -60 -30 l-37 8 50 23 c28 12 51 23 51 23 1 1 -1
-10 -4 -24z"/>
<path d="M4160 10512 c-207 -69 -324 -287 -261 -488 52 -169 185 -259 381
-257 148 2 280 72 280 150 l0 35 -56 -51 c-104 -96 -240 -108 -330 -29 -45 40
-61 71 -79 158 -52 249 46 443 225 443 96 0 178 -60 215 -157 10 -25 24 -46
31 -46 11 0 14 27 14 130 0 102 -3 130 -13 130 -8 0 -19 -11 -25 -25 -14 -31
-31 -31 -107 -4 -83 30 -203 35 -275 11z"/>
<path d="M4670 10500 c0 -5 5 -10 10 -10 6 0 19 -9 30 -20 19 -19 20 -33 20
-319 0 -165 -3 -307 -6 -316 -4 -9 -18 -21 -31 -26 -50 -19 -10 -29 118 -29
71 0 129 4 129 9 0 5 -11 16 -25 25 l-25 16 0 171 c0 167 0 170 25 194 26 27
64 32 83 13 8 -8 12 -66 12 -195 l0 -183 -25 -16 c-14 -9 -25 -20 -25 -25 0
-5 59 -9 130 -9 98 0 130 3 130 13 0 7 -10 17 -22 22 -22 10 -23 15 -28 200
-6 203 -9 215 -61 259 -50 42 -140 32 -201 -22 -17 -14 -18 -8 -18 121 l0 137
-110 0 c-67 0 -110 -4 -110 -10z"/>
<path d="M7470 10503 c0 -5 14 -16 30 -25 l30 -17 0 -306 c0 -192 -4 -314 -10
-326 -6 -10 -20 -19 -30 -19 -11 0 -20 -7 -20 -15 0 -13 22 -15 140 -15 141 0
165 7 113 32 l-28 13 -3 343 -2 342 -110 0 c-61 0 -110 -3 -110 -7z"/>
<path d="M5585 10280 c-16 -11 -42 -36 -57 -57 l-28 -37 0 52 0 52 -105 0
c-78 0 -105 -3 -105 -13 0 -7 10 -17 23 -22 22 -10 22 -12 22 -220 0 -208 0
-210 -22 -220 -13 -5 -23 -15 -23 -22 0 -10 33 -13 135 -13 113 0 135 2 135
15 0 8 -8 15 -19 15 -38 0 -43 23 -39 167 3 114 7 144 23 171 25 42 48 48 84
23 35 -25 59 -26 89 -5 27 19 31 93 6 118 -21 22 -83 20 -119 -4z"/>
<path d="M5914 10281 c-89 -40 -139 -143 -132 -269 5 -90 29 -143 84 -191 48
-43 73 -51 151 -51 80 0 121 18 172 76 45 51 61 100 61 186 0 163 -93 268
-236 268 -36 0 -75 -8 -100 -19z m150 -54 c19 -26 21 -42 21 -192 0 -151 -2
-166 -21 -192 -28 -37 -69 -38 -97 -1 -16 22 -21 47 -25 145 -2 66 1 144 7
178 17 94 70 122 115 62z"/>
<path d="M6588 10271 c-46 -29 -47 -30 -50 -8 -3 21 -9 22 -102 25 -104 3
-139 -8 -93 -29 14 -6 28 -21 31 -33 8 -29 8 -370 0 -391 -4 -9 -18 -21 -31
-26 -50 -19 -10 -29 113 -29 93 0 124 3 124 13 0 7 -9 18 -20 25 -19 11 -20
23 -20 183 0 167 0 170 25 194 29 30 70 33 85 6 6 -12 10 -93 10 -195 l0 -176
-25 -16 c-14 -9 -25 -20 -25 -25 0 -5 59 -9 130 -9 98 0 130 3 130 13 0 7 -10
17 -22 22 -22 10 -23 15 -28 200 -4 156 -8 196 -23 222 -37 69 -130 84 -209
34z"/>
<path d="M7074 10281 c-89 -40 -139 -143 -132 -269 5 -90 29 -143 84 -191 48
-43 73 -51 151 -51 80 0 121 18 172 76 45 51 61 100 61 186 0 163 -93 268
-236 268 -36 0 -75 -8 -100 -19z m150 -54 c19 -26 21 -42 21 -192 0 -151 -2
-166 -21 -192 -28 -37 -69 -38 -97 -1 -16 22 -21 47 -25 145 -2 66 1 144 7
178 17 94 70 122 115 62z"/>
<path d="M7934 10281 c-89 -40 -139 -143 -132 -269 5 -90 29 -143 84 -191 48
-43 73 -51 151 -51 80 0 121 18 172 76 45 51 61 100 61 186 0 163 -93 268
-236 268 -36 0 -75 -8 -100 -19z m150 -54 c19 -26 21 -42 21 -192 0 -151 -2
-166 -21 -192 -28 -37 -69 -38 -97 -1 -16 22 -21 47 -25 145 -2 66 1 144 7
178 17 94 70 122 115 62z"/>
<path d="M8452 10275 c-72 -37 -106 -94 -100 -170 5 -62 39 -115 88 -137 35
-15 38 -24 11 -33 -11 -3 -34 -22 -50 -41 -40 -45 -42 -99 -6 -143 l26 -30
-28 -13 c-57 -27 -54 -102 6 -132 82 -43 274 -40 362 4 79 41 106 146 53 209
-33 40 -77 51 -199 51 -75 0 -106 4 -123 16 -46 32 -11 74 62 74 84 0 135 19
188 70 47 45 48 48 48 106 0 37 -6 68 -15 80 -22 29 -18 34 25 34 37 0 40 2
40 29 l0 29 -97 6 c-54 3 -129 9 -168 12 -62 4 -76 2 -123 -21z m171 -46 c28
-39 29 -189 0 -227 -28 -38 -65 -40 -93 -5 -20 25 -21 37 -18 124 2 79 7 101
22 118 26 28 63 24 89 -10z m105 -545 c29 -19 25 -41 -11 -68 -24 -18 -42 -21
-127 -21 -82 0 -101 3 -119 19 -38 35 -24 79 29 89 51 9 205 -4 228 -19z"/>
<path d="M8870 10275 c0 -8 9 -19 20 -25 25 -13 39 -41 146 -287 l86 -198 -17
-50 c-32 -93 -85 -140 -85 -77 0 60 -56 88 -103 52 -51 -40 -30 -118 38 -140
68 -22 119 8 164 97 12 24 63 152 115 286 105 273 118 302 146 320 43 26 23
37 -65 37 -69 0 -85 -3 -85 -15 0 -8 6 -15 14 -15 26 0 48 -31 41 -59 -10 -45
-77 -221 -84 -221 -9 0 -100 213 -103 242 -2 15 4 26 20 33 12 5 22 15 22 22
0 10 -33 13 -135 13 -112 0 -135 -3 -135 -15z"/>
<path d="M9858 8817 c-36 -16 -164 -123 -189 -158 -24 -34 -79 -201 -79 -240
0 -37 23 -47 60 -25 37 21 62 21 33 -2 -29 -22 -105 -151 -101 -171 5 -28 47
-24 144 14 138 54 151 67 178 187 4 15 20 43 37 63 22 24 29 40 24 55 -6 18
-15 20 -76 20 -38 0 -69 2 -69 4 0 1 21 47 46 101 30 64 44 107 42 128 -4 36
-13 40 -50 24z"/>
<path d="M5130 6607 c-28 -14 -30 -40 -10 -117 7 -25 16 -62 22 -83 18 -71 62
-62 158 32 102 100 94 138 -36 166 -85 18 -102 18 -134 2z"/>
<path d="M1737 4765 c-71 -18 -136 -39 -144 -48 -22 -22 -9 -64 33 -103 l36
-32 -17 -59 c-21 -76 -18 -107 13 -111 40 -6 81 18 106 62 23 39 112 314 105
320 -2 2 -62 -11 -132 -29z"/>
<path d="M6664 4677 c-12 -7 -51 -48 -87 -92 -35 -44 -76 -91 -91 -104 -18
-17 -26 -35 -26 -57 0 -23 -6 -37 -20 -44 -11 -6 -20 -21 -20 -33 0 -20 -4
-22 -54 -19 -29 2 -70 -1 -90 -7 -31 -8 -38 -7 -43 6 -6 15 -116 73 -139 73
-7 0 -19 11 -27 24 -16 24 -90 48 -193 62 -63 8 -117 -14 -187 -76 -59 -53
-104 -65 -144 -39 -36 24 -48 24 -73 -1 -27 -27 -25 -63 10 -145 35 -82 36
-85 10 -85 -35 0 -68 -22 -73 -49 -6 -26 -6 -26 -99 -26 -79 0 -103 -4 -161
-29 -62 -25 -70 -26 -85 -13 -24 22 -69 114 -79 161 -4 21 -15 44 -24 49 -37
23 -123 -31 -112 -71 4 -18 -2 -22 -50 -32 -31 -6 -61 -17 -67 -25 -6 -7 -10
-34 -9 -58 2 -39 -2 -51 -30 -83 -31 -34 -33 -41 -28 -87 4 -27 11 -55 18 -63
8 -10 -10 -27 -93 -80 -66 -43 -134 -98 -189 -155 -89 -91 -124 -112 -266
-169 -60 -24 -83 -37 -83 -50 0 -10 6 -20 13 -23 7 -3 83 24 170 58 86 35 159
60 162 56 2 -5 0 -23 -5 -42 -17 -59 -13 -88 15 -99 30 -11 30 -10 4 -60 -25
-47 -18 -77 25 -106 23 -14 24 -18 12 -36 -16 -22 -10 -50 22 -114 15 -29 19
-52 15 -80 -8 -58 12 -71 74 -50 71 24 75 23 58 -25 -20 -57 -19 -85 6 -110
20 -20 29 -21 113 -16 50 4 114 9 142 13 50 6 51 6 64 -25 9 -24 18 -31 34
-29 30 4 34 60 7 87 -32 32 -36 66 -12 97 25 32 26 52 5 82 -22 32 -11 55 72
142 58 60 79 76 97 73 43 -8 58 17 68 107 4 46 13 86 20 91 6 4 29 10 51 13
28 5 42 13 50 31 8 17 31 32 80 51 37 14 87 41 109 60 51 42 87 44 131 6 18
-16 55 -36 81 -45 27 -9 58 -28 69 -42 10 -14 28 -25 37 -25 12 0 20 -10 24
-28 6 -27 122 -152 142 -152 28 1 38 22 44 92 5 61 15 93 60 188 30 63 63 123
74 132 10 10 44 25 74 35 59 19 98 50 124 99 12 23 31 36 77 53 34 12 64 26
67 32 13 20 -7 50 -36 56 -23 4 -28 9 -22 22 22 45 -3 171 -33 171 -15 0 -18
52 -6 128 l7 44 24 -26 c32 -34 76 -34 138 2 26 15 62 35 78 43 38 19 43 50
14 90 l-22 31 23 117 c18 93 20 122 11 139 -13 25 -18 26 -47 9z"/>
<path d="M2881 4000 c-31 -5 -62 -16 -73 -28 -20 -19 -20 -19 -43 4 -29 29
-39 30 -64 5 -12 -12 -22 -40 -26 -78 -21 -185 -19 -183 -90 -183 -41 0 -57
-4 -62 -15 -5 -14 -8 -14 -29 0 -52 34 -90 8 -124 -83 -19 -50 -19 -56 -5 -79
15 -23 15 -24 -19 -38 -47 -20 -46 -20 -46 16 0 61 -70 139 -124 139 -31 0
-44 -22 -52 -93 -5 -46 -11 -57 -35 -71 -34 -20 -59 -44 -59 -57 0 -5 9 -18
21 -30 l20 -20 -48 3 c-41 3 -50 7 -69 36 -12 18 -25 50 -29 71 -17 103 -64
93 -80 -17 -7 -44 -18 -79 -31 -93 l-19 -21 -5 53 c-4 45 -8 54 -26 57 -18 3
-23 -6 -37 -55 -27 -98 -49 -219 -45 -255 3 -28 7 -33 32 -36 26 -3 40 8 117
90 48 51 91 89 95 85 4 -4 -12 -23 -35 -43 -60 -52 -55 -77 19 -84 l55 -5 -65
-8 c-114 -15 -120 -17 -120 -45 0 -24 1 -25 58 -18 31 4 74 9 95 13 29 4 37 2
37 -10 0 -9 -9 -18 -19 -22 -25 -8 -31 -26 -38 -105 -10 -127 28 -190 116
-190 59 0 70 -8 81 -56 14 -58 12 -71 -10 -77 -12 -3 -20 -14 -20 -27 0 -12
-20 -50 -45 -84 -45 -63 -54 -89 -35 -101 17 -10 38 8 82 71 70 98 93 122 124
126 24 2 31 10 42 44 12 37 18 43 55 52 23 6 66 13 95 16 48 5 52 3 52 -16 0
-12 -13 -36 -29 -53 -45 -47 -48 -70 -12 -105 18 -18 40 -30 56 -30 37 0 98
34 150 84 45 42 45 43 45 110 0 61 -2 67 -24 76 -13 5 -33 22 -46 39 -32 46
-55 55 -92 37 -49 -25 -53 -19 -14 24 20 22 36 48 36 58 0 10 -16 42 -35 72
-40 62 -40 60 -21 86 12 15 18 17 33 8 10 -6 19 -17 20 -25 11 -85 14 -91 39
-86 19 3 28 -2 39 -23 7 -14 21 -32 29 -39 10 -8 16 -29 16 -53 0 -22 5 -48
10 -59 12 -22 60 -49 89 -49 31 0 72 -56 65 -88 -11 -46 -32 -71 -84 -97 -59
-30 -83 -62 -78 -107 4 -47 34 -48 113 -3 64 35 65 36 53 11 -6 -14 -19 -28
-29 -31 -9 -3 -24 -16 -33 -29 -23 -36 -46 -138 -40 -178 6 -33 4 -36 -26 -47
-56 -19 -58 -14 -22 57 64 129 53 187 -31 163 -23 -7 -58 -22 -77 -33 l-35
-20 -15 23 c-8 13 -29 39 -46 58 -39 43 -66 38 -133 -24 -76 -71 -101 -126
-108 -243 -6 -107 3 -142 38 -142 40 0 119 59 119 88 0 26 43 -11 56 -49 10
-28 9 -37 -4 -52 -10 -11 -16 -38 -16 -71 -1 -42 5 -61 27 -92 25 -37 27 -45
21 -101 -6 -56 -9 -63 -35 -74 -54 -22 -40 -52 72 -162 l101 -99 -56 -58 c-31
-32 -56 -63 -56 -69 0 -6 -21 -11 -49 -11 -79 0 -87 -40 -18 -93 19 -14 38
-39 42 -54 12 -49 21 -53 115 -53 80 0 91 -2 118 -25 20 -16 28 -32 25 -44 -8
-30 24 -52 70 -49 38 3 42 6 55 43 8 22 19 51 25 65 15 35 10 50 -26 87 -31
33 -45 85 -46 178 l-1 40 53 2 52 2 18 -117 c10 -64 21 -131 23 -148 6 -31 4
-36 -66 -169 -24 -46 -30 -70 -28 -105 3 -40 6 -45 28 -48 18 -2 41 11 84 50
33 29 90 76 127 103 95 70 229 185 229 196 0 26 -32 80 -52 88 l-22 8 27 26
c20 21 36 27 72 27 l45 0 0 -39 c0 -46 20 -71 56 -71 39 0 71 40 84 106 6 32
24 86 40 119 25 53 56 169 75 278 3 22 1 52 -6 71 -11 31 -7 52 49 237 34 112
76 248 94 303 31 93 35 99 67 110 45 14 49 30 16 60 l-27 25 46 64 c40 56 52
66 91 76 34 9 46 17 51 36 3 13 3 28 0 34 -4 5 8 19 25 32 26 18 30 27 27 56
-4 32 -2 34 34 39 72 12 92 57 31 69 -15 3 -45 10 -66 16 -37 10 -38 11 -31
47 9 48 9 48 44 55 31 7 39 27 17 45 -7 6 -40 18 -74 28 l-61 17 30 63 c24 51
27 67 18 83 -14 27 -44 27 -155 -4 -114 -32 -145 -32 -179 0 -41 38 -34 48 30
40 70 -8 104 10 104 56 0 22 13 45 45 82 67 77 64 104 -22 185 -36 34 -76 65
-89 68 -28 7 -66 -13 -126 -65 -45 -40 -47 -41 -122 -41 -88 0 -127 14 -182
62 -22 19 -51 41 -65 50 -18 11 -29 29 -34 54 -11 60 -45 142 -71 173 -38 46
-130 60 -263 41z m-806 -946 c45 -6 147 -53 160 -73 2 -5 -2 -14 -10 -21 -18
-15 -19 -43 -4 -72 14 -25 3 -35 -41 -40 -34 -3 -35 -2 -42 41 -8 49 -18 64
-71 102 -21 15 -47 40 -59 54 -20 26 -20 27 -2 22 10 -3 42 -9 69 -13z m485
-845 c0 -5 -7 -9 -15 -9 -9 0 -12 6 -9 15 6 15 24 11 24 -6z m23 -79 c16 0 14
-6 -14 -42 -18 -24 -34 -45 -36 -47 -2 -3 -14 6 -27 18 -23 22 -23 23 -8 60
16 36 17 37 42 24 14 -7 33 -13 43 -13z m390 -508 l39 -17 -31 -42 c-30 -41
-31 -42 -58 -28 -45 24 -88 19 -112 -11 l-21 -27 0 31 c0 23 5 31 24 36 13 3
35 22 50 41 31 40 52 43 109 17z"/>
<path d="M1474 3122 c-7 -4 -17 -27 -24 -52 -29 -116 -41 -140 -65 -140 -28 0
-96 -53 -189 -149 -53 -53 -75 -69 -90 -66 -12 3 -27 1 -35 -4 -20 -13 -26
-118 -9 -151 26 -50 139 -86 188 -60 35 19 55 134 31 179 -12 21 -10 28 17 65
21 28 40 43 63 48 18 3 39 14 46 24 13 18 15 17 36 -10 17 -21 28 -27 44 -22
27 9 33 42 33 195 0 138 -9 167 -46 143z"/>
<path d="M3206 718 c-31 -17 -107 -193 -122 -283 -14 -80 -29 -105 -64 -105
-42 0 -61 -59 -40 -116 10 -25 14 -26 59 -22 27 3 71 16 97 29 l49 24 6 90 c4
57 14 110 28 145 29 69 41 219 20 237 -10 8 -20 8 -33 1z"/>
<path d="M2668 358 c-75 -81 -84 -154 -33 -262 24 -52 29 -56 61 -56 28 0 46
11 105 67 39 37 77 80 85 96 31 59 -7 115 -111 163 -65 31 -71 30 -107 -8z"/>
</g>
</svg>
